<?xml version="1.0" encoding="utf-8"?>
<!-- Generator: Adobe Illustrator 18.1.1, SVG Export Plug-In . SVG Version: 6.00 Build 0)  -->
<svg version="1.1" id="레이어_1" xmlns="http://www.w3.org/2000/svg" xmlns:xlink="http://www.w3.org/1999/xlink" x="0px"
	 y="0px" width="24px" height="24px" viewBox="-468 259 24 24" enable-background="new -468 259 24 24" xml:space="preserve">
<g>
	<rect x="-456" y="265.3" fill="#666666" width="1.9" height="1.9"/>
	<rect x="-457.9" y="267.2" fill="#666666" width="1.9" height="1.9"/>
	<rect x="-459.8" y="269.1" fill="#666666" width="1.9" height="1.9"/>
	<rect x="-454.1" y="263.4" fill="#666666" width="1.9" height="1.9"/>
	<polygon fill="#666666" points="-459.8,274.8 -459.8,272.9 -459.8,271 -461.7,271 -461.7,269.1 -463.6,269.1 -465.5,269.1 
		-465.5,271 -465.5,272.9 -465.5,274.8 -463.6,274.8 -463.6,276.7 -465.5,276.7 -465.5,278.6 -467.4,278.6 -467.4,280.5 
		-467.4,282.4 -465.5,282.4 -463.6,282.4 -463.6,280.5 -461.7,280.5 -461.7,278.6 -459.8,278.6 -459.8,280.5 -457.9,280.5 
		-456,280.5 -454.1,280.5 -454.1,278.6 -454.1,276.7 -456,276.7 -456,274.8 -457.9,274.8 	"/>
	<rect x="-452.2" y="261.5" fill="#666666" width="1.9" height="1.9"/>
	<rect x="-448.4" y="265.3" fill="#666666" width="1.9" height="1.9"/>
	<rect x="-456" y="272.9" fill="#666666" width="1.9" height="1.9"/>
	<polygon fill="#666666" points="-446.5,259.6 -448.4,259.6 -450.3,259.6 -450.3,261.5 -448.4,261.5 -446.5,261.5 -446.5,263.4 
		-446.5,265.3 -444.6,265.3 -444.6,263.4 -444.6,261.5 -444.6,259.6 	"/>
	<rect x="-450.3" y="267.2" fill="#666666" width="1.9" height="1.9"/>
	<rect x="-452.2" y="269.1" fill="#666666" width="1.9" height="1.9"/>
	<rect x="-454.1" y="271" fill="#666666" width="1.9" height="1.9"/>
</g>
</svg>
