<svg version="1.1" id="레이어_1" xmlns="http://www.w3.org/2000/svg" xmlns:xlink="http://www.w3.org/1999/xlink" x="0px"
	 y="0px" viewBox="0 0 16 16" style="enable-background:new 0 0 16 16;" xml:space="preserve">
	<rect x="8" y="4.3" width="1.2" height="1.2"/>
	<rect x="6.8" y="5.5" width="1.2" height="1.2"/>
	<rect x="5.6" y="6.7" width="1.2" height="1.2"/>
	<rect x="9.2" y="3.1" width="1.2" height="1.2"/>
	<polygon points="5.6,10.4 5.6,9.2 5.6,8 4.4,8 4.4,6.7 3.1,6.7 1.9,6.7 1.9,8 1.9,9.2 1.9,10.4 3.1,10.4 3.1,11.6 1.9,11.6 
		1.9,12.9 0.6,12.9 0.6,14.1 0.6,15.4 1.9,15.4 3.1,15.4 3.1,14.1 4.4,14.1 4.4,12.9 5.6,12.9 5.6,14.1 6.8,14.1 8,14.1 9.2,14.1 
		9.2,12.9 9.2,11.6 8,11.6 8,10.4 6.8,10.4 	"/>
	<rect x="10.4" y="1.9" width="1.2" height="1.2"/>
	<rect x="12.9" y="4.3" width="1.2" height="1.2"/>
	<rect x="8" y="9.2" width="1.2" height="1.2"/>
	<polygon points="14.2,0.6 12.9,0.6 11.6,0.6 11.6,1.9 12.9,1.9 14.2,1.9 14.2,3.1 14.2,4.3 15.4,4.3 15.4,3.1 15.4,1.9 15.4,0.6 	
		"/>
	<rect x="11.6" y="5.5" width="1.2" height="1.2"/>
	<rect x="10.4" y="6.7" width="1.2" height="1.2"/>
	<rect x="9.2" y="8" width="1.2" height="1.2"/>
</svg>
