<svg version="1.1" id="레이어_1" xmlns="http://www.w3.org/2000/svg" xmlns:xlink="http://www.w3.org/1999/xlink" x="0px"
	 y="0px" viewBox="0 0 24 24" style="enable-background:new 0 0 24 24;" xml:space="preserve">
<style type="text/css">
	.st0{fill:#666666;}
</style>
<g>
	<rect x="12.1" y="6.4" class="st0" width="1.9" height="1.9"/>
	<rect x="10.2" y="8.3" class="st0" width="1.9" height="1.9"/>
	<rect x="8.3" y="10.2" class="st0" width="1.9" height="1.9"/>
	<rect x="14" y="4.5" class="st0" width="1.9" height="1.9"/>
	<polygon class="st0" points="8.3,16 8.3,14.1 8.3,12.2 6.4,12.2 6.4,10.2 4.5,10.2 2.6,10.2 2.6,12.2 2.6,14.1 2.6,16 4.5,16 
		4.5,17.9 2.6,17.9 2.6,19.9 0.5,19.9 0.5,21.8 0.5,23.7 2.6,23.7 4.5,23.7 4.5,21.8 6.4,21.8 6.4,19.9 8.3,19.9 8.3,21.8 
		10.2,21.8 12.1,21.8 14,21.8 14,19.9 14,17.9 12.1,17.9 12.1,16 10.2,16 	"/>
	<rect x="15.9" y="2.6" class="st0" width="1.9" height="1.9"/>
	<rect x="19.8" y="6.4" class="st0" width="1.9" height="1.9"/>
	<rect x="12.1" y="14.1" class="st0" width="1.9" height="1.9"/>
	<polygon class="st0" points="21.8,0.7 19.8,0.7 17.8,0.7 17.8,2.6 19.8,2.6 21.8,2.6 21.8,4.5 21.8,6.4 23.7,6.4 23.7,4.5 
		23.7,2.6 23.7,0.7 	"/>
	<rect x="17.8" y="8.3" class="st0" width="1.9" height="1.9"/>
	<rect x="15.9" y="10.2" class="st0" width="1.9" height="1.9"/>
	<rect x="14" y="12.2" class="st0" width="1.9" height="1.9"/>
</g>
</svg>
