<?xml version="1.0" encoding="utf-8"?>
<!-- Generator: Adobe Illustrator 21.1.0, SVG Export Plug-In . SVG Version: 6.00 Build 0)  -->
<svg version="1.1" id="레이어_1" xmlns="http://www.w3.org/2000/svg" xmlns:xlink="http://www.w3.org/1999/xlink" x="0px"
	 y="0px" viewBox="0 0 24 24" style="enable-background:new 0 0 24 24;" xml:space="preserve">
<style type="text/css">
	.st0{fill:#666666;}
</style>
<g>
	<rect x="9.5" y="4.8" class="st0" width="1.4" height="1.4"/>
	<rect x="10.9" y="6.2" class="st0" width="1.4" height="1.4"/>
	<rect x="12.3" y="7.6" class="st0" width="1.4" height="1.4"/>
	<rect x="8.1" y="3.4" class="st0" width="1.4" height="1.4"/>
	<polygon class="st0" points="12.3,11.9 10.9,11.9 10.9,13.3 9.5,13.3 9.5,14.7 9.5,16.1 10.9,16.1 12.3,16.1 13.7,16.1 13.7,14.7 
		15.1,14.7 15.1,16.1 16.5,16.1 16.5,17.5 17.9,17.5 19.4,17.5 19.4,16.1 19.4,14.7 17.9,14.7 17.9,13.3 16.5,13.3 16.5,11.9 
		17.9,11.9 17.9,10.5 17.9,9.1 17.9,7.6 16.5,7.6 15.1,7.6 15.1,9.1 13.7,9.1 13.7,10.5 13.7,11.9 	"/>
	<rect x="6.7" y="2" class="st0" width="1.4" height="1.4"/>
	<rect x="3.9" y="4.8" class="st0" width="1.4" height="1.4"/>
	<rect x="9.5" y="10.5" class="st0" width="1.4" height="1.4"/>
	<polygon class="st0" points="2.4,0.6 2.4,2 2.4,3.4 2.4,4.8 3.8,4.8 3.8,3.4 3.8,2 5.3,2 6.7,2 6.7,0.6 5.3,0.6 3.8,0.6 	"/>
	<rect x="5.3" y="6.2" class="st0" width="1.4" height="1.4"/>
	<rect x="6.7" y="7.6" class="st0" width="1.4" height="1.4"/>
	<rect x="8.1" y="9.1" class="st0" width="1.4" height="1.4"/>
</g>
</svg>
