<?xml version="1.0" encoding="utf-8"?>
<!-- Generator: Adobe Illustrator 18.1.1, SVG Export Plug-In . SVG Version: 6.00 Build 0)  -->
<svg version="1.1" id="레이어_1" xmlns="http://www.w3.org/2000/svg" xmlns:xlink="http://www.w3.org/1999/xlink" x="0px"
	 y="0px" width="24px" height="24px" viewBox="-468 259 24 24" enable-background="new -468 259 24 24" xml:space="preserve">
<g>
	<rect x="-454.9" y="263.8" fill="#666666" width="1.4" height="1.4"/>
	<rect x="-456.3" y="265.2" fill="#666666" width="1.4" height="1.4"/>
	<rect x="-457.7" y="266.6" fill="#666666" width="1.4" height="1.4"/>
	<rect x="-453.5" y="262.4" fill="#666666" width="1.4" height="1.4"/>
	<polygon fill="#666666" points="-457.7,270.9 -457.7,269.5 -457.7,268.1 -459.1,268.1 -459.1,266.6 -460.5,266.6 -461.9,266.6 
		-461.9,268.1 -461.9,269.5 -461.9,270.9 -460.5,270.9 -460.5,272.3 -461.9,272.3 -461.9,273.7 -463.4,273.7 -463.4,275.1 
		-463.4,276.5 -461.9,276.5 -460.5,276.5 -460.5,275.1 -459.1,275.1 -459.1,273.7 -457.7,273.7 -457.7,275.1 -456.3,275.1 
		-454.9,275.1 -453.5,275.1 -453.5,273.7 -453.5,272.3 -454.9,272.3 -454.9,270.9 -456.3,270.9 	"/>
	<rect x="-452.1" y="261" fill="#666666" width="1.4" height="1.4"/>
	<rect x="-449.3" y="263.8" fill="#666666" width="1.4" height="1.4"/>
	<rect x="-454.9" y="269.5" fill="#666666" width="1.4" height="1.4"/>
	<polygon fill="#666666" points="-447.8,259.6 -449.3,259.6 -450.7,259.6 -450.7,261 -449.3,261 -447.8,261 -447.8,262.4 
		-447.8,263.8 -446.4,263.8 -446.4,262.4 -446.4,261 -446.4,259.6 	"/>
	<rect x="-450.7" y="265.2" fill="#666666" width="1.4" height="1.4"/>
	<rect x="-452.1" y="266.6" fill="#666666" width="1.4" height="1.4"/>
	<rect x="-453.5" y="268.1" fill="#666666" width="1.4" height="1.4"/>
</g>
</svg>
