<?xml version="1.0" standalone="no"?>
<!DOCTYPE svg PUBLIC "-//W3C//DTD SVG 20010904//EN"
 "http://www.w3.org/TR/2001/REC-SVG-20010904/DTD/svg10.dtd">
<svg version="1.0" xmlns="http://www.w3.org/2000/svg"
 width="700.000000pt" height="700.000000pt" viewBox="0 0 700.000000 700.000000"
 preserveAspectRatio="xMidYMid meet">
<metadata>
Created by potrace 1.11, written by Peter Selinger 2001-2013
</metadata>
<g transform="translate(0.000000,700.000000) scale(0.100000,-0.100000)"
fill="#000000" stroke="none">
<path d="M5194 6791 c-2 -2 -4 -127 -4 -277 l0 -272 -271 0 c-168 0 -274 -4
-278 -10 -3 -6 -6 -131 -5 -279 l1 -268 -276 0 -276 0 0 -275 0 -275 276 0
277 -1 -2 269 c-1 169 3 272 9 277 6 5 116 8 245 8 129 0 250 1 267 1 l33 1 2
276 3 275 550 0 c303 0 564 0 582 0 l32 -1 0 -507 c0 -280 0 -529 0 -554 l1
-46 269 1 c148 1 273 4 276 8 4 4 8 376 9 828 1 722 -1 820 -14 821 -41 4
-1702 4 -1706 0z"/>
<path d="M3534 5131 c-2 -2 -4 -127 -4 -278 l0 -273 -277 -2 -278 -3 0 -268
c0 -169 4 -271 10 -276 8 -6 479 -8 533 -2 9 1 12 63 12 276 l0 275 278 0 277
0 0 269 c0 149 -4 273 -8 277 -7 8 -535 12 -543 5z"/>
<path d="M5782 5125 c-4 -5 -7 -130 -7 -277 l0 -268 277 0 278 0 0 278 0 277
-271 0 c-170 0 -273 -4 -277 -10z"/>
<path d="M5190 4302 l0 -277 -271 0 c-225 0 -272 -2 -277 -14 -4 -11 -7 -448
-3 -523 1 -17 21 -18 276 -18 l275 0 2 277 3 278 275 0 275 0 0 278 1 277
-278 0 -278 0 0 -278z"/>
<path d="M763 4017 c-4 -6 -7 -1393 -3 -1648 l0 -36 275 1 c238 1 275 -1 276
-14 1 -21 1 -480 0 -512 l-1 -28 -275 0 -275 0 -1 -67 c0 -38 0 -168 0 -290 0
-161 -4 -222 -12 -225 -7 -2 -144 -4 -304 -3 -161 0 -293 -2 -294 -5 -1 -3 -2
-251 -3 -553 -1 -480 1 -547 14 -548 82 -4 1142 0 1147 5 3 3 6 125 5 271 0
213 2 267 13 271 7 3 132 6 277 7 l263 2 2 255 c0 140 2 264 2 275 1 20 7 20
274 20 l272 0 5 -275 5 -275 830 -2 830 -2 0 567 -1 567 -277 3 -277 2 -2 277
-3 277 -550 1 -550 0 -3 553 -2 552 -38 1 c-20 0 -143 1 -274 1 -210 0 -237 2
-240 17 -2 9 -3 139 -2 289 1 149 -2 273 -5 273 -29 6 -1094 2 -1098 -4z"/>
<path d="M2424 4021 c-2 -2 -4 -127 -4 -278 l0 -273 277 2 278 3 0 268 c0 148
-2 272 -5 276 -5 7 -538 9 -546 2z"/>
<path d="M4114 3440 l-30 -5 0 -263 c1 -145 -2 -268 -5 -274 -4 -6 -108 -10
-278 -10 l-271 0 0 -277 0 -278 278 0 277 0 -1 278 0 277 260 0 c144 1 268 1
277 1 14 1 16 32 16 272 0 218 -2 272 -13 276 -18 7 -470 9 -510 3z"/>
</g>
</svg>
